<svg width="15" height="14" viewBox="0 0 15 14" fill="none" xmlns="http://www.w3.org/2000/svg">
<path d="M14.353 13.1465L11.506 10.3025C12.437 9.21149 13 7.79749 13 6.25049C13 2.79849 10.202 0.000488281 6.75 0.000488281C3.298 0.000488281 0.5 2.79849 0.5 6.25049C0.5 9.70249 3.298 12.5005 6.75 12.5005C8.295 12.5005 9.708 11.9385 10.799 11.0095L13.647 13.8535C13.745 13.9515 13.872 13.9995 14 13.9995C14.128 13.9995 14.256 13.9505 14.354 13.8525C14.549 13.6585 14.549 13.3415 14.353 13.1465ZM1.5 6.25049C1.5 3.35549 3.855 1.00049 6.75 1.00049C9.645 1.00049 12 3.35549 12 6.25049C12 9.14549 9.645 11.5005 6.75 11.5005C3.855 11.5005 1.5 9.14549 1.5 6.25049Z" fill="#838691"/>
</svg>
