<svg width="12" height="12" viewBox="0 0 12 12" fill="none" xmlns="http://www.w3.org/2000/svg">
<path d="M11.6675 1.06052C11.8627 0.865275 11.8627 0.548725 11.6675 0.353483C11.4723 0.158254 11.1557 0.15824 10.9605 0.35345L6.01 5.303L1.0605 0.3535C0.865267 0.158267 0.548733 0.158267 0.3535 0.3535C0.158267 0.548733 0.158267 0.865267 0.3535 1.0605L5.303 6.01L0.353451 10.9605C0.15824 11.1557 0.158254 11.4723 0.353483 11.6675C0.548725 11.8627 0.865275 11.8627 1.06052 11.6675L6.01 6.718L10.9605 11.6675C11.1557 11.8628 11.4723 11.8627 11.6675 11.6675C11.8627 11.4723 11.8628 11.1557 11.6675 10.9605L6.718 6.01L11.6675 1.06052Z" fill="#838691"/>
</svg>
